<?xml version="1.0" encoding="UTF-8" standalone="no"?>
<!DOCTYPE svg PUBLIC "-//W3C//DTD SVG 1.1//EN"
 "http://www.w3.org/Graphics/SVG/1.1/DTD/svg11.dtd">
<!-- Generated by graphviz version 13.1.0 (20250701.0955)
 -->
<!-- Title: interface/driver_max31855_interface.h Pages: 1 -->
<svg width="414pt" height="176pt"
 viewBox="0.00 0.00 414.00 176.00" xmlns="http://www.w3.org/2000/svg" xmlns:xlink="http://www.w3.org/1999/xlink">
<g id="graph0" class="graph" transform="scale(1 1) rotate(0) translate(4 172)">
<title>interface/driver_max31855_interface.h</title>
<!-- Node1 -->
<g id="Node000001" class="node">
<title>Node1</title>
<g id="a_Node000001"><a xlink:title="driver max31855 interface header file">
<polygon fill="#999999" stroke="#666666" points="278.38,-168 147.62,-168 147.62,-136 278.38,-136 278.38,-168"/>
<text xml:space="preserve" text-anchor="start" x="155.62" y="-154.5" font-family="Helvetica,sans-Serif" font-size="10.00">interface/driver_max31855</text>
<text xml:space="preserve" text-anchor="middle" x="213" y="-142.5" font-family="Helvetica,sans-Serif" font-size="10.00">_interface.h</text>
</a>
</g>
</g>
<!-- Node2 -->
<g id="Node000002" class="node">
<title>Node2</title>
<g id="a_Node000002"><a xlink:href="driver__max31855__basic_8h.html" target="_top" xlink:title="driver max31855 basic include file">
<polygon fill="white" stroke="#666666" points="130,-100 0,-100 0,-68 130,-68 130,-100"/>
<text xml:space="preserve" text-anchor="start" x="8" y="-86.5" font-family="Helvetica,sans-Serif" font-size="10.00">example/driver_max31855</text>
<text xml:space="preserve" text-anchor="middle" x="65" y="-74.5" font-family="Helvetica,sans-Serif" font-size="10.00">_basic.h</text>
</a>
</g>
</g>
<!-- Node1&#45;&gt;Node2 -->
<g id="edge1_Node000001_Node000002" class="edge">
<title>Node1&#45;&gt;Node2</title>
<g id="a_edge1_Node000001_Node000002"><a xlink:title=" ">
<path fill="none" stroke="#63b8ff" d="M167.91,-130.89C146,-121.12 120.08,-109.56 99.74,-100.49"/>
<polygon fill="#63b8ff" stroke="#63b8ff" points="166.36,-134.03 176.92,-134.91 169.21,-127.64 166.36,-134.03"/>
</a>
</g>
</g>
<!-- Node4 -->
<g id="Node000004" class="node">
<title>Node4</title>
<g id="a_Node000004"><a xlink:href="driver__max31855__interface__template_8c.html" target="_top" xlink:title="driver max31855 interface template source file">
<polygon fill="white" stroke="#666666" points="278.38,-100 147.62,-100 147.62,-68 278.38,-68 278.38,-100"/>
<text xml:space="preserve" text-anchor="start" x="155.62" y="-86.5" font-family="Helvetica,sans-Serif" font-size="10.00">interface/driver_max31855</text>
<text xml:space="preserve" text-anchor="middle" x="213" y="-74.5" font-family="Helvetica,sans-Serif" font-size="10.00">_interface_template.c</text>
</a>
</g>
</g>
<!-- Node1&#45;&gt;Node4 -->
<g id="edge3_Node000001_Node000004" class="edge">
<title>Node1&#45;&gt;Node4</title>
<g id="a_edge3_Node000001_Node000004"><a xlink:title=" ">
<path fill="none" stroke="#63b8ff" d="M213,-124.31C213,-116.12 213,-107.38 213,-100.22"/>
<polygon fill="#63b8ff" stroke="#63b8ff" points="209.5,-124.18 213,-134.18 216.5,-124.18 209.5,-124.18"/>
</a>
</g>
</g>
<!-- Node5 -->
<g id="Node000005" class="node">
<title>Node5</title>
<g id="a_Node000005"><a xlink:href="driver__max31855__read__test_8h.html" target="_top" xlink:title="driver max31855 read test header file">
<polygon fill="white" stroke="#666666" points="405.88,-100 296.12,-100 296.12,-68 405.88,-68 405.88,-100"/>
<text xml:space="preserve" text-anchor="start" x="304.12" y="-86.5" font-family="Helvetica,sans-Serif" font-size="10.00">test/driver_max31855</text>
<text xml:space="preserve" text-anchor="middle" x="351" y="-74.5" font-family="Helvetica,sans-Serif" font-size="10.00">_read_test.h</text>
</a>
</g>
</g>
<!-- Node1&#45;&gt;Node5 -->
<g id="edge4_Node000001_Node000005" class="edge">
<title>Node1&#45;&gt;Node5</title>
<g id="a_edge4_Node000001_Node000005"><a xlink:title=" ">
<path fill="none" stroke="#63b8ff" d="M255.64,-130.61C276.03,-120.86 300.03,-109.38 318.85,-100.38"/>
<polygon fill="#63b8ff" stroke="#63b8ff" points="254.23,-127.4 246.72,-134.87 257.25,-133.72 254.23,-127.4"/>
</a>
</g>
</g>
<!-- Node3 -->
<g id="Node000003" class="node">
<title>Node3</title>
<g id="a_Node000003"><a xlink:href="driver__max31855__basic_8c.html" target="_top" xlink:title="driver max31855 basic source file">
<polygon fill="white" stroke="#666666" points="130,-32 0,-32 0,0 130,0 130,-32"/>
<text xml:space="preserve" text-anchor="start" x="8" y="-18.5" font-family="Helvetica,sans-Serif" font-size="10.00">example/driver_max31855</text>
<text xml:space="preserve" text-anchor="middle" x="65" y="-6.5" font-family="Helvetica,sans-Serif" font-size="10.00">_basic.c</text>
</a>
</g>
</g>
<!-- Node2&#45;&gt;Node3 -->
<g id="edge2_Node000002_Node000003" class="edge">
<title>Node2&#45;&gt;Node3</title>
<g id="a_edge2_Node000002_Node000003"><a xlink:title=" ">
<path fill="none" stroke="#63b8ff" d="M65,-56.31C65,-48.12 65,-39.38 65,-32.22"/>
<polygon fill="#63b8ff" stroke="#63b8ff" points="61.5,-56.18 65,-66.18 68.5,-56.18 61.5,-56.18"/>
</a>
</g>
</g>
<!-- Node6 -->
<g id="Node000006" class="node">
<title>Node6</title>
<g id="a_Node000006"><a xlink:href="driver__max31855__read__test_8c.html" target="_top" xlink:title="driver max31855 read test source file">
<polygon fill="white" stroke="#666666" points="405.88,-32 296.12,-32 296.12,0 405.88,0 405.88,-32"/>
<text xml:space="preserve" text-anchor="start" x="304.12" y="-18.5" font-family="Helvetica,sans-Serif" font-size="10.00">test/driver_max31855</text>
<text xml:space="preserve" text-anchor="middle" x="351" y="-6.5" font-family="Helvetica,sans-Serif" font-size="10.00">_read_test.c</text>
</a>
</g>
</g>
<!-- Node5&#45;&gt;Node6 -->
<g id="edge5_Node000005_Node000006" class="edge">
<title>Node5&#45;&gt;Node6</title>
<g id="a_edge5_Node000005_Node000006"><a xlink:title=" ">
<path fill="none" stroke="#63b8ff" d="M351,-56.31C351,-48.12 351,-39.38 351,-32.22"/>
<polygon fill="#63b8ff" stroke="#63b8ff" points="347.5,-56.18 351,-66.18 354.5,-56.18 347.5,-56.18"/>
</a>
</g>
</g>
</g>
</svg>
