<?xml version="1.0" encoding="UTF-8" standalone="no"?>
<!DOCTYPE svg PUBLIC "-//W3C//DTD SVG 1.1//EN"
 "http://www.w3.org/Graphics/SVG/1.1/DTD/svg11.dtd">
<!-- Generated by graphviz version 13.1.0 (20250701.0955)
 -->
<!-- Title: max31855_basic_init Pages: 1 -->
<svg width="255pt" height="278pt"
 viewBox="0.00 0.00 255.00 278.00" xmlns="http://www.w3.org/2000/svg" xmlns:xlink="http://www.w3.org/1999/xlink">
<g id="graph0" class="graph" transform="scale(1 1) rotate(0) translate(4 274)">
<title>max31855_basic_init</title>
<!-- Node1 -->
<g id="Node000001" class="node">
<title>Node1</title>
<g id="a_Node000001"><a xlink:title="basic example init">
<polygon fill="#999999" stroke="#666666" points="107.5,-151 0,-151 0,-131 107.5,-131 107.5,-151"/>
<text xml:space="preserve" text-anchor="middle" x="53.75" y="-137.5" font-family="Helvetica,sans-Serif" font-size="10.00">max31855_basic_init</text>
</a>
</g>
</g>
<!-- Node2 -->
<g id="Node000002" class="node">
<title>Node2</title>
<g id="a_Node000002"><a xlink:href="group__max31855__base__driver.html#gabcbbb35bbc4ae0bec02c05a5a8a5114c" target="_top" xlink:title="initialize the chip">
<polygon fill="white" stroke="#666666" points="234.88,-270 155.88,-270 155.88,-250 234.88,-250 234.88,-270"/>
<text xml:space="preserve" text-anchor="middle" x="195.38" y="-256.5" font-family="Helvetica,sans-Serif" font-size="10.00">max31855_init</text>
</a>
</g>
</g>
<!-- Node1&#45;&gt;Node2 -->
<g id="edge1_Node000001_Node000002" class="edge">
<title>Node1&#45;&gt;Node2</title>
<g id="a_edge1_Node000001_Node000002"><a xlink:title=" ">
<path fill="none" stroke="#63b8ff" d="M61.31,-151.27C74.54,-171.23 106.36,-215.53 143.5,-241 145.34,-242.26 147.27,-243.45 149.26,-244.57"/>
<polygon fill="#63b8ff" stroke="#63b8ff" points="147.7,-247.7 158.22,-248.95 150.77,-241.41 147.7,-247.7"/>
</a>
</g>
</g>
<!-- Node3 -->
<g id="Node000003" class="node">
<title>Node3</title>
<g id="a_Node000003"><a xlink:href="group__max31855__interface__driver.html#ga5aa9af4a3ea748807f0eaa7989fad611" target="_top" xlink:title="interface print format data">
<polygon fill="white" stroke="#666666" points="247.25,-232 143.5,-232 143.5,-200 247.25,-200 247.25,-232"/>
<text xml:space="preserve" text-anchor="start" x="151.5" y="-218.5" font-family="Helvetica,sans-Serif" font-size="10.00">max31855_interface</text>
<text xml:space="preserve" text-anchor="middle" x="195.38" y="-206.5" font-family="Helvetica,sans-Serif" font-size="10.00">_debug_print</text>
</a>
</g>
</g>
<!-- Node1&#45;&gt;Node3 -->
<g id="edge2_Node000001_Node000003" class="edge">
<title>Node1&#45;&gt;Node3</title>
<g id="a_edge2_Node000001_Node000003"><a xlink:title=" ">
<path fill="none" stroke="#63b8ff" d="M72.6,-151.45C90.41,-161.78 118.62,-177.89 143.5,-191 145.69,-192.16 147.95,-193.33 150.23,-194.5"/>
<polygon fill="#63b8ff" stroke="#63b8ff" points="148.45,-197.52 158.96,-198.91 151.61,-191.27 148.45,-197.52"/>
</a>
</g>
</g>
<!-- Node4 -->
<g id="Node000004" class="node">
<title>Node4</title>
<g id="a_Node000004"><a xlink:href="group__max31855__interface__driver.html#gaf08978cebbd7da37b378504bb7496adc" target="_top" xlink:title="interface delay ms">
<polygon fill="white" stroke="#666666" points="247.25,-182 143.5,-182 143.5,-150 247.25,-150 247.25,-182"/>
<text xml:space="preserve" text-anchor="start" x="151.5" y="-168.5" font-family="Helvetica,sans-Serif" font-size="10.00">max31855_interface</text>
<text xml:space="preserve" text-anchor="middle" x="195.38" y="-156.5" font-family="Helvetica,sans-Serif" font-size="10.00">_delay_ms</text>
</a>
</g>
</g>
<!-- Node1&#45;&gt;Node4 -->
<g id="edge3_Node000001_Node000004" class="edge">
<title>Node1&#45;&gt;Node4</title>
<g id="a_edge3_Node000001_Node000004"><a xlink:title=" ">
<path fill="none" stroke="#63b8ff" d="M107.93,-150.52C115.79,-151.93 123.95,-153.39 131.97,-154.83"/>
<polygon fill="#63b8ff" stroke="#63b8ff" points="131.23,-158.25 141.69,-156.57 132.46,-151.36 131.23,-158.25"/>
</a>
</g>
</g>
<!-- Node5 -->
<g id="Node000005" class="node">
<title>Node5</title>
<g id="a_Node000005"><a xlink:href="group__max31855__interface__driver.html#ga44b2834e6abf3b7c649c570bc7b9d624" target="_top" xlink:title="interface spi bus deinit">
<polygon fill="white" stroke="#666666" points="247.25,-132 143.5,-132 143.5,-100 247.25,-100 247.25,-132"/>
<text xml:space="preserve" text-anchor="start" x="151.5" y="-118.5" font-family="Helvetica,sans-Serif" font-size="10.00">max31855_interface</text>
<text xml:space="preserve" text-anchor="middle" x="195.38" y="-106.5" font-family="Helvetica,sans-Serif" font-size="10.00">_spi_deinit</text>
</a>
</g>
</g>
<!-- Node1&#45;&gt;Node5 -->
<g id="edge4_Node000001_Node000005" class="edge">
<title>Node1&#45;&gt;Node5</title>
<g id="a_edge4_Node000001_Node000005"><a xlink:title=" ">
<path fill="none" stroke="#63b8ff" d="M107.93,-131.48C115.79,-130.07 123.95,-128.61 131.97,-127.17"/>
<polygon fill="#63b8ff" stroke="#63b8ff" points="132.46,-130.64 141.69,-125.43 131.23,-123.75 132.46,-130.64"/>
</a>
</g>
</g>
<!-- Node6 -->
<g id="Node000006" class="node">
<title>Node6</title>
<g id="a_Node000006"><a xlink:href="group__max31855__interface__driver.html#ga9baac4173656c0e94bc3e904c8b1d74f" target="_top" xlink:title="interface spi bus init">
<polygon fill="white" stroke="#666666" points="247.25,-82 143.5,-82 143.5,-50 247.25,-50 247.25,-82"/>
<text xml:space="preserve" text-anchor="start" x="151.5" y="-68.5" font-family="Helvetica,sans-Serif" font-size="10.00">max31855_interface</text>
<text xml:space="preserve" text-anchor="middle" x="195.38" y="-56.5" font-family="Helvetica,sans-Serif" font-size="10.00">_spi_init</text>
</a>
</g>
</g>
<!-- Node1&#45;&gt;Node6 -->
<g id="edge5_Node000001_Node000006" class="edge">
<title>Node1&#45;&gt;Node6</title>
<g id="a_edge5_Node000001_Node000006"><a xlink:title=" ">
<path fill="none" stroke="#63b8ff" d="M72.6,-130.55C90.41,-120.22 118.62,-104.11 143.5,-91 145.69,-89.84 147.95,-88.67 150.23,-87.5"/>
<polygon fill="#63b8ff" stroke="#63b8ff" points="151.61,-90.73 158.96,-83.09 148.45,-84.48 151.61,-90.73"/>
</a>
</g>
</g>
<!-- Node7 -->
<g id="Node000007" class="node">
<title>Node7</title>
<g id="a_Node000007"><a xlink:href="group__max31855__interface__driver.html#ga3903e6428ba53b9bb4ff8483c7c4291c" target="_top" xlink:title="interface spi bus read command">
<polygon fill="white" stroke="#666666" points="247.25,-32 143.5,-32 143.5,0 247.25,0 247.25,-32"/>
<text xml:space="preserve" text-anchor="start" x="151.5" y="-18.5" font-family="Helvetica,sans-Serif" font-size="10.00">max31855_interface</text>
<text xml:space="preserve" text-anchor="middle" x="195.38" y="-6.5" font-family="Helvetica,sans-Serif" font-size="10.00">_spi_read_cmd</text>
</a>
</g>
</g>
<!-- Node1&#45;&gt;Node7 -->
<g id="edge6_Node000001_Node000007" class="edge">
<title>Node1&#45;&gt;Node7</title>
<g id="a_edge6_Node000001_Node000007"><a xlink:title=" ">
<path fill="none" stroke="#63b8ff" d="M61.75,-130.74C75.51,-111.2 107.86,-68.14 143.5,-41 144.65,-40.13 145.83,-39.27 147.03,-38.44"/>
<polygon fill="#63b8ff" stroke="#63b8ff" points="148.78,-41.48 155.42,-33.22 145.08,-35.53 148.78,-41.48"/>
</a>
</g>
</g>
</g>
</svg>
