<?xml version="1.0" encoding="UTF-8" standalone="no"?>
<!DOCTYPE svg PUBLIC "-//W3C//DTD SVG 1.1//EN"
 "http://www.w3.org/Graphics/SVG/1.1/DTD/svg11.dtd">
<!-- Generated by graphviz version 13.1.0 (20250701.0955)
 -->
<!-- Title: max31855_basic_read Pages: 1 -->
<svg width="282pt" height="66pt"
 viewBox="0.00 0.00 282.00 66.00" xmlns="http://www.w3.org/2000/svg" xmlns:xlink="http://www.w3.org/1999/xlink">
<g id="graph0" class="graph" transform="scale(1 1) rotate(0) translate(4 62)">
<title>max31855_basic_read</title>
<!-- Node1 -->
<g id="Node000001" class="node">
<title>Node1</title>
<g id="a_Node000001"><a xlink:title="basic example read the temperature">
<polygon fill="#999999" stroke="#666666" points="113.5,-39 0,-39 0,-19 113.5,-19 113.5,-39"/>
<text xml:space="preserve" text-anchor="middle" x="56.75" y="-25.5" font-family="Helvetica,sans-Serif" font-size="10.00">max31855_basic_read</text>
</a>
</g>
</g>
<!-- Node2 -->
<g id="Node000002" class="node">
<title>Node2</title>
<g id="a_Node000002"><a xlink:href="group__max31855__base__driver.html#ga55cd6f6f18642f3724271256b4da269c" target="_top" xlink:title="get the last fault">
<polygon fill="white" stroke="#666666" points="274.25,-58 149.5,-58 149.5,-38 274.25,-38 274.25,-58"/>
<text xml:space="preserve" text-anchor="middle" x="211.88" y="-44.5" font-family="Helvetica,sans-Serif" font-size="10.00">max31855_get_last_fault</text>
</a>
</g>
</g>
<!-- Node1&#45;&gt;Node2 -->
<g id="edge1_Node000001_Node000002" class="edge">
<title>Node1&#45;&gt;Node2</title>
<g id="a_edge1_Node000001_Node000002"><a xlink:title=" ">
<path fill="none" stroke="#63b8ff" d="M113.9,-35.97C121.67,-36.93 129.75,-37.93 137.78,-38.93"/>
<polygon fill="#63b8ff" stroke="#63b8ff" points="137.19,-42.38 147.55,-40.14 138.06,-35.44 137.19,-42.38"/>
</a>
</g>
</g>
<!-- Node3 -->
<g id="Node000003" class="node">
<title>Node3</title>
<g id="a_Node000003"><a xlink:href="group__max31855__base__driver.html#ga6677bf5625d18cd9635c90acbb917cf1" target="_top" xlink:title="read the temperature">
<polygon fill="white" stroke="#666666" points="254.38,-20 169.38,-20 169.38,0 254.38,0 254.38,-20"/>
<text xml:space="preserve" text-anchor="middle" x="211.88" y="-6.5" font-family="Helvetica,sans-Serif" font-size="10.00">max31855_read</text>
</a>
</g>
</g>
<!-- Node1&#45;&gt;Node3 -->
<g id="edge2_Node000001_Node000003" class="edge">
<title>Node1&#45;&gt;Node3</title>
<g id="a_edge2_Node000001_Node000003"><a xlink:title=" ">
<path fill="none" stroke="#63b8ff" d="M113.9,-22.03C128.31,-20.24 143.77,-18.33 158.01,-16.56"/>
<polygon fill="#63b8ff" stroke="#63b8ff" points="158.13,-20.07 167.62,-15.37 157.27,-13.12 158.13,-20.07"/>
</a>
</g>
</g>
</g>
</svg>
